# xmcd CD database file
#
# Track frame offsets:
#	150
#	14988
#	36683
#	50346
#	67010
#	83909
#	103987
#	121965
#	139687
#	153992
#	173497
#	187366
#	204733
#
# Disc length: 2963 seconds
#
# Revision: 1
# Processed by: cddbd v1.5.2PL0 Copyright (c) Steve Scherf et al.
# Submitted via: CDex 1.70beta2
#
DISCID=c70b910d
DTITLE=Enya - And Winter Came
DYEAR=2008
DGENRE=New Age
TTITLE0=And Winter Came...
TTITLE1=Journey of the Angels
TTITLE2=White Is in the Winter Night
TTITLE3=O Come, O Come, Emmanuel
TTITLE4=Trains and Winter Rains
TTITLE5=Dreams Are More Precious
TTITLE6=Last Time by Moonlight
TTITLE7=One Toy Soldier
TTITLE8=Stars and Midnight Blue 
TTITLE9=The The Spirit of Christmas Past
TTITLE10=My! My! Time Flies!
TTITLE11=Oíche Chiúin (Chorale)
TTITLE12=Miraculum
EXTD=YEAR: 2008
EXTT0=
EXTT1=
EXTT2=
EXTT3=
EXTT4=
EXTT5=
EXTT6=
EXTT7=
EXTT8=
EXTT9=
EXTT10=
EXTT11=
EXTT12=
PLAYORDER=
